# xmcd CD database file
#
# Track frame offsets:
#	150
#	14006
#	24331
#	37069
#	51217
#	64061
#	77186
#	90728
#	104189
#	116021
#	130279
#	144221
#	155374
#	169150
#	181625
#	193421
#	207214
#	219753
#	233717
#
# Disc length: 3309 seconds
#
# Revision: 2
# Processed by: cddbd v1.5.2PL0 Copyright (c) Steve Scherf et al.
# Submitted via: CDex 1.51
#
DISCID=0b0ceb13
DTITLE=Billie Holiday - Billy Holiday  [CD 03-10]
DYEAR=1900
DGENRE=Jazz
TTITLE0=If My Heart Could Only Talk  
TTITLE1=Please Keep Me In Your Dreams  
TTITLE2=He Ain't Got Rhythm  
TTITLE3=This Year's Kisses  
TTITLE4=Why Was I Born ¿
TTITLE5=I Must Have That Man  
TTITLE6=The Mood That I'm In  
TTITLE7=You Showed Me The Way  
TTITLE8=Sentimental and Melancholy  
TTITLE9=My Last Affair  
TTITLE10=Carelessly  
TTITLE11=How Could You ¿  
TTITLE12=Moanin' Low  
TTITLE13=Where Is The Sun ¿
TTITLE14=Let's Call The Whole Thing Off  
TTITLE15=They Can't Take That Away From Me  
TTITLE16=I Don't Know If I'm Coming Or Going  
TTITLE17=Sun Showers  
TTITLE18=Yours And Mine  
EXTD=Volume 3 of a 10-CD set.
EXTT0=
EXTT1=
EXTT2=
EXTT3=
EXTT4=
EXTT5=
EXTT6=
EXTT7=
EXTT8=
EXTT9=
EXTT10=
EXTT11=
EXTT12=
EXTT13=
EXTT14=
EXTT15=
EXTT16=
EXTT17=
EXTT18=
PLAYORDER=
